<?xml version="1.0" encoding="UTF-8" standalone="no"?>
<svg
   version="1.0"
   width="228.0146pt"
   height="227.19244pt"
   viewBox="0 0 228.0146 227.19244"
   preserveAspectRatio="xMidYMid"
   id="svg1"
   sodipodi:docname="appiconfg.svg"
   inkscape:export-filename="pogoda.svg"
   inkscape:export-xdpi="96"
   inkscape:export-ydpi="96"
   inkscape:version="1.3.2 (091e20e, 2023-11-25, custom)"
   xmlns:inkscape="http://www.inkscape.org/namespaces/inkscape"
   xmlns:sodipodi="http://sodipodi.sourceforge.net/DTD/sodipodi-0.dtd"
   xmlns="http://www.w3.org/2000/svg"
   xmlns:svg="http://www.w3.org/2000/svg">
  <defs
     id="defs1" />
  <sodipodi:namedview
     id="namedview1"
     pagecolor="#ffffff"
     bordercolor="#000000"
     borderopacity="0.25"
     inkscape:showpageshadow="2"
     inkscape:pageopacity="0.0"
     inkscape:pagecheckerboard="0"
     inkscape:deskcolor="#d1d1d1"
     inkscape:document-units="pt"
     showgrid="false"
     inkscape:zoom="2.7366667"
     inkscape:cx="149.8173"
     inkscape:cy="150"
     inkscape:window-width="1920"
     inkscape:window-height="1017"
     inkscape:window-x="-8"
     inkscape:window-y="-8"
     inkscape:window-maximized="1"
     inkscape:current-layer="layer1" />
  <g
     inkscape:groupmode="layer"
     id="layer1"
     inkscape:label="warstwa1"
     style="display:inline"
     transform="translate(0.54811203,0.82216805)">
    <path
       style="fill:#ffffff;fill-opacity:1;stroke-width:0.75"
       d="M -0.54811206,-0.54811206 226.09622,-0.82216807 227.4665,226.37028 H -0.27405603"
       id="path6"
       inkscape:export-filename=".\path6.svg"
       inkscape:export-xdpi="96"
       inkscape:export-ydpi="96" />
    <path
       style="fill:#ffffff;fill-opacity:1;stroke-width:0.365408"
       d="M -0.30464276,192.84409 C -0.43847609,133.00396 -0.54800667,65.037968 -0.54804406,41.808559 l -6.8e-5,-42.23528799 L 105.29828,-0.67012454 C 163.51379,-0.80399211 231.42487,-0.9135201 256.2118,-0.9135201 h 45.06713 l 0.004,2.2838002 c 0.002,1.2560902 0.41142,67.8105969 0.90897,147.8988999 0.49755,80.08831 0.90669,147.13612 0.90919,148.99513 l 0.005,3.38003 H 151.52233 -0.06130948 Z"
       id="path34"
       transform="scale(0.75)" />
  </g>
  <g
     inkscape:groupmode="layer"
     id="layer2"
     inkscape:label="warstwa2"
     style="display:inline"
     transform="translate(0.54811203,0.82216805)">
    <g
       transform="matrix(0.1,0,0,-0.1,0,225)"
       fill="#000000"
       stroke="none"
       id="g1">
      <path
         d="m 1476,1894 c -3,-9 -6,-41 -6,-73 0,-59 -11,-81 -42,-81 -35,0 -143,-43 -169,-66 -14,-13 -32,-24 -40,-24 -8,0 -37,22 -63,49 -41,41 -53,48 -68,40 -28,-15 -22,-31 32,-85 27,-27 50,-52 50,-56 0,-4 -13,-26 -29,-50 -15,-24 -36,-65 -46,-91 l -18,-48 -41,8 c -23,4 -77,7 -121,6 C 657,1418 437,1221 385,948 381,929 368,914 342,901 322,890 289,864 269,843 115,682 162,441 369,338 l 46,-23 578,-3 c 634,-3 652,-2 745,56 24,15 52,31 61,36 25,13 98,124 116,176 26,73 29,147 10,219 -16,63 -65,152 -98,180 -22,18 -21,37 2,53 29,21 79,118 94,183 l 13,60 74,5 c 56,4 75,9 84,23 18,29 -17,47 -91,47 -60,0 -63,1 -69,28 -13,60 -35,116 -64,163 -16,27 -30,54 -30,59 0,6 21,31 46,56 46,47 54,76 20,82 -12,3 -36,-14 -67,-44 -46,-46 -51,-48 -72,-34 -59,38 -127,69 -174,80 l -53,12 v 53 c 0,30 -4,65 -10,79 -11,29 -44,35 -54,10 z m 137,-235 c 154,-52 250,-184 249,-344 0,-82 -19,-139 -68,-212 l -36,-52 -37,16 c -75,33 -135,44 -208,39 -54,-3 -73,-1 -73,8 0,21 -82,130 -130,173 -25,22 -71,55 -102,73 -32,17 -58,37 -58,43 0,28 52,120 91,162 95,104 237,139 372,94 z m -528,-331 c 81,-28 151,-74 208,-138 73,-81 93,-130 53,-130 -19,0 -48,-36 -44,-56 7,-37 34,-40 95,-10 129,64 268,41 368,-60 72,-72 99,-142 93,-244 -6,-94 -26,-139 -99,-212 -88,-89 -66,-87 -744,-89 -433,-2 -587,1 -609,10 -53,22 -105,71 -132,127 -23,47 -26,64 -22,117 6,71 22,107 67,154 40,42 79,61 142,71 58,8 81,30 63,60 -6,9 -23,18 -39,20 -25,3 -27,6 -21,35 13,65 73,172 127,226 87,86 170,126 289,140 82,10 129,5 205,-21 z"
         id="path1" />
    </g>
    <path
       style="fill:#ffffff;fill-opacity:1;stroke-width:0.365408"
       d="m 230.57247,157.9961 c -4.74824,-2.10413 -9.94576,-3.8587 -14.19692,-4.79257 -3.31298,-0.72778 -4.74346,-0.8153 -13.42556,-0.82147 -10.51509,-0.007 -10.65934,-0.0335 -11.05207,-1.99719 -0.46616,-2.33082 -8.71464,-13.48504 -14.26665,-19.29244 -3.92948,-4.11025 -11.45764,-9.797 -17.47428,-13.20002 -1.1463,-0.64835 -3.09814,-1.92525 -4.33743,-2.83756 -2.24188,-1.65038 -2.25222,-1.66643 -2.04999,-3.18019 0.27583,-2.0647 3.98879,-9.40726 7.23659,-14.310714 8.86443,-13.383308 22.83757,-21.010962 38.4901,-21.010962 18.24857,0 35.64975,10.476564 43.49655,26.187546 3.46329,6.93426 4.93654,13.51866 4.93654,22.06284 0,8.38862 -1.20177,13.76477 -4.62061,20.67044 -1.67058,3.37437 -8.43871,13.71024 -9.09195,13.88467 -0.19561,0.0522 -1.83555,-0.56084 -3.64432,-1.36238 z"
       id="path2"
       transform="scale(0.75)" />
    <path
       style="fill:#ffffff;fill-opacity:1;stroke-width:0.365408"
       d="m 64.129111,247.57531 c -8.226785,-0.35465 -9.139969,-0.52093 -12.396223,-2.25728 -6.397621,-3.41143 -11.590793,-8.86589 -15.12148,-15.88229 -2.36118,-4.69228 -2.902622,-6.80457 -2.893231,-11.28714 0.02261,-10.79116 2.349579,-17.18137 8.712818,-23.92674 5.274342,-5.59108 10.412559,-8.23992 18.810098,-9.69692 4.164463,-0.72254 7.155279,-1.82977 8.456,-3.1305 0.805914,-0.80591 1.009363,-1.34389 1.009363,-2.66909 0,-2.90771 -2.301039,-4.71674 -6.997388,-5.50122 -1.996912,-0.33357 -2.253344,-0.83988 -1.771414,-3.49757 1.6453,-9.07328 10.24266,-24.22242 17.957677,-31.64265 8.862753,-8.52412 17.297401,-13.34348 28.082749,-16.04582 9.36576,-2.34666 21.07714,-2.90598 28.06719,-1.34045 13.3305,2.98557 25.52306,9.66412 34.26295,18.76775 7.04318,7.3363 11.48228,13.82796 11.48228,16.79148 0,1.55584 -0.15106,1.67408 -3.17268,2.4835 -1.07288,0.28739 -1.9716,0.91297 -3.01575,2.09918 -2.49785,2.83771 -2.83634,5.83783 -0.91613,8.11987 1.78199,2.11776 4.99249,1.75847 11.67216,-1.30625 7.72475,-3.54423 12.41323,-4.65377 19.54933,-4.62641 5.74361,0.022 9.21071,0.65691 14.06821,2.57613 6.48179,2.56098 10.71769,5.51919 16.31529,11.39404 8.06507,8.46452 11.27618,16.37653 11.27086,27.77079 -0.001,2.5361 -0.24724,6.25542 -0.54679,8.26517 -1.43949,9.65792 -4.20427,14.52989 -13.48265,23.75858 -4.55379,4.52939 -5.9508,5.69612 -7.99665,6.67849 -4.4563,2.13982 -9.71543,3.03185 -22.18613,3.76311 -7.96704,0.46717 -129.397926,0.76568 -139.220459,0.34224 z"
       id="path3"
       transform="scale(0.75)" />
    <path
       style="fill:#ffcc00;fill-opacity:1;stroke-width:0.281989"
       d="m 173.98072,119.36072 c -2.94529,-1.28272 -7.33595,-2.80469 -10.17417,-3.52677 -1.89623,-0.48242 -3.60574,-0.60925 -10.59809,-0.78622 -4.58543,-0.11607 -8.37056,-0.2289 -8.41138,-0.25076 -0.0409,-0.0218 -0.37074,-0.70448 -0.73315,-1.51691 -1.40416,-3.14779 -7.55705,-11.22201 -11.57813,-15.193584 -2.62494,-2.592623 -8.09297,-6.729316 -11.96651,-9.052955 -1.52851,-0.916913 -3.44678,-2.155395 -4.26285,-2.752174 -1.2861,-0.940537 -1.48372,-1.212685 -1.48372,-2.043291 0,-1.151177 3.22278,-7.685359 5.37057,-10.888801 7.14918,-10.663065 17.43616,-16.293014 29.77698,-16.296583 18.26148,-0.0052 34.01145,12.828785 36.78245,29.972655 0.66682,4.125535 0.59602,10.881146 -0.15255,14.555493 -0.64673,3.1744 -1.89376,6.49134 -3.54708,9.43464 -1.7214,3.06452 -6.05258,9.37068 -6.42137,9.34948 -0.18705,-0.0108 -1.35749,-0.46266 -2.601,-1.00422 z"
       id="path4" />
    <path
       style="fill:#ffffff;fill-opacity:1;stroke-width:0.365408"
       d="m 59.76783,247.18366 c -3.760761,-0.29198 -4.473237,-0.46666 -7.125457,-1.7469 -6.944007,-3.3519 -12.371336,-9.0426 -16.314155,-17.10584 -2.067246,-4.2276 -2.656708,-7.35949 -2.363481,-12.55747 0.573649,-10.16896 2.839273,-15.44136 9.507888,-22.1261 5.174862,-5.18737 8.190499,-6.73716 17.03888,-8.75659 6.072033,-1.38579 7.766704,-2.00736 9.190078,-3.37071 0.844345,-0.80874 1.004873,-1.26647 1.004873,-2.86524 0,-2.98696 -1.270619,-4.03077 -6.942753,-5.70341 l -1.644336,-0.4849 0.06651,-2.0067 c 0.08255,-2.49068 1.722037,-7.28543 4.309572,-12.60353 8.984089,-18.46479 23.491252,-31.03282 40.918031,-35.44864 6.57517,-1.6661 10.90262,-2.17197 18.65229,-2.18042 8.21003,-0.009 9.99801,0.27972 17.35479,2.80193 7.82807,2.68379 15.13215,6.63938 21.0513,11.40051 7.33175,5.89738 16.6729,17.49177 16.96036,21.05147 0.15941,1.97414 0.0369,2.14123 -2.05346,2.80015 -4.67561,1.47386 -7.46548,6.83404 -5.28144,10.1472 1.99398,3.02482 4.49103,2.7377 15.19967,-1.74775 5.47934,-2.29508 9.00931,-3.1389 14.23529,-3.40284 12.54921,-0.6338 23.09365,3.85302 32.54909,13.85013 8.97088,9.48479 11.85182,17.85424 11.03852,32.06809 -0.46643,8.15163 -2.35674,13.74488 -6.56994,19.43983 -2.73686,3.6994 -11.15818,12.20633 -13.64502,13.78374 -3.56739,2.26281 -9.29979,3.55083 -19.71857,4.4306 -5.9426,0.5018 -141.306607,0.80793 -147.418532,0.33339 z"
       id="path7"
       transform="scale(0.75)" />
  </g>
</svg>
